<svg xmlns="http://www.w3.org/2000/svg" viewBox="0 0 512 512" fill="none"><defs><clipPath id="tc"><rect width="512" height="512" rx="0"/></clipPath></defs><rect width="512" height="512" rx="0" fill="#14213D"/><g clip-path="url(#tc)"><g transform="translate(6.75 -3.00)"><g transform="translate(256 256) scale(1.2) translate(-285 -240)"><g transform="translate(256 256) rotate(34) translate(-256 -256)"><path d="M244 214 H268 V348 H300 V366 H268 V384 H296 V402 H244 Z" fill="#FC9350"/><rect x="232" y="214" width="48" height="12" rx="2" fill="#FC9350"/><circle cx="256" cy="140" r="74" fill="#FC9350"/><circle cx="256" cy="140" r="58" fill="#14213D"/><clipPath id="kb"><circle cx="256" cy="140" r="53"/></clipPath><g clip-path="url(#kb)"><rect x="203.00" y="85" width="16.40" height="110" fill="#FFF8E7"/><rect x="225.40" y="85" width="16.40" height="110" fill="#FFF8E7"/><rect x="247.80" y="85" width="16.40" height="110" fill="#FC9350"/><rect x="270.20" y="85" width="16.40" height="110" fill="#FFF8E7"/><rect x="292.60" y="85" width="16.40" height="110" fill="#FFF8E7"/></g></g></g></g></g></svg>
